<?xml version="1.0" encoding="UTF-8"?>
<svg version="1.1" xmlns="http://www.w3.org/2000/svg" width="368" height="161">
<path d="M0 0 C0.84860596 -0.00636475 1.69721191 -0.01272949 2.5715332 -0.01928711 C10.37326132 0.1402464 18.20210814 1.71959627 23.8125 7.5 C25.125 10.25 25.125 10.25 25.8125 12.5 C26.92625 12.396875 28.04 12.29375 29.1875 12.1875 C35.3628362 12.19846863 40.99082852 14.92313107 45.5234375 19.0625 C49.95421108 24.1847816 50.1450607 28.70603323 50.10546875 35.20703125 C49.65265594 40.29664723 48.14769439 44.95745033 45.8125 49.5 C44.8225 49.995 44.8225 49.995 43.8125 50.5 C43.85890625 49.7265625 43.9053125 48.953125 43.953125 48.15625 C44.29849278 38.60094497 44.29849278 38.60094497 39.8125 30.5 C28.94472148 22.61632393 14.18913691 22.18611851 1.3828125 24.1171875 C-17.47682004 27.34603659 -47.22163043 33.53413043 -61.1875 47.5 C-62.53017413 47.58631874 -63.87724322 47.60706473 -65.22265625 47.59765625 C-66.03154297 47.59443359 -66.84042969 47.59121094 -67.67382812 47.58789062 C-68.52396484 47.57951172 -69.37410156 47.57113281 -70.25 47.5625 C-71.10400391 47.55798828 -71.95800781 47.55347656 -72.83789062 47.54882812 C-74.95445663 47.53700373 -77.07098685 47.51906769 -79.1875 47.5 C-75.27305622 43.1710857 -71.18224605 40.50456759 -66.0625 37.75 C-64.87551514 37.10538818 -64.87551514 37.10538818 -63.66455078 36.44775391 C-61.18123893 35.11382432 -58.68757962 33.80220682 -56.1875 32.5 C-55.42566406 32.10200195 -54.66382813 31.70400391 -53.87890625 31.29394531 C-31.22661783 19.6242872 -7.47612211 12.91249481 17.8125 10.5 C11.07410828 9.08934603 4.69894715 8.00889046 -2.1875 8.5 C-3.15558594 8.56832031 -4.12367188 8.63664062 -5.12109375 8.70703125 C-32.94818723 11.68967613 -65.20037139 27.34007664 -86.625 45.125 C-90.1459226 47.92913523 -93.09323723 48.02357945 -97.5 47.7109375 C-98.056875 47.64132813 -98.61375 47.57171875 -99.1875 47.5 C-97.84610337 44.4120536 -96.50065034 42.66063503 -93.8359375 40.6171875 C-93.15772949 40.09471436 -92.47952148 39.57224121 -91.78076172 39.03393555 C-91.04873535 38.48648682 -90.31670898 37.93903809 -89.5625 37.375 C-88.42385498 36.51612183 -88.42385498 36.51612183 -87.26220703 35.63989258 C-79.84721509 30.12206283 -72.1762857 25.14191348 -64.1875 20.5 C-63.57197266 20.14067383 -62.95644531 19.78134766 -62.32226562 19.41113281 C-43.45639276 8.53468645 -21.9833744 0.13860399 0 0 Z " fill="#40A1D3" transform="translate(210.1875,23.5)"/>
<path d="M0 0 C0.84860596 -0.00636475 1.69721191 -0.01272949 2.5715332 -0.01928711 C10.45618148 0.14194199 18.07281277 1.76031277 23.8125 7.5 C24.3075 8.985 24.3075 8.985 24.8125 10.5 C20.49331748 10.69196367 16.68347729 10.34800109 12.4375 9.5 C7.43666801 8.55004548 2.8887533 8.13798511 -2.1875 8.5 C-3.15558594 8.56832031 -4.12367188 8.63664062 -5.12109375 8.70703125 C-32.94818723 11.68967613 -65.20037139 27.34007664 -86.625 45.125 C-90.1459226 47.92913523 -93.09323723 48.02357945 -97.5 47.7109375 C-98.056875 47.64132813 -98.61375 47.57171875 -99.1875 47.5 C-97.84610337 44.4120536 -96.50065034 42.66063503 -93.8359375 40.6171875 C-93.15772949 40.09471436 -92.47952148 39.57224121 -91.78076172 39.03393555 C-91.04873535 38.48648682 -90.31670898 37.93903809 -89.5625 37.375 C-88.42385498 36.51612183 -88.42385498 36.51612183 -87.26220703 35.63989258 C-79.84721509 30.12206283 -72.1762857 25.14191348 -64.1875 20.5 C-63.57197266 20.14067383 -62.95644531 19.78134766 -62.32226562 19.41113281 C-43.45639276 8.53468645 -21.9833744 0.13860399 0 0 Z " fill="#E59135" transform="translate(210.1875,23.5)"/>
<path d="M0 0 C0.33 0 0.66 0 1 0 C1.12117188 0.66386719 1.24234375 1.32773438 1.3671875 2.01171875 C2.44810077 8.76240196 2.44810077 8.76240196 5 15 C7.12041444 16.33521435 7.12041444 16.33521435 10 17 C11.258125 17.391875 12.51625 17.78375 13.8125 18.1875 C27.1999043 20.95807208 43.67497627 17.6202169 55.875 11.75 C63.00966905 8.60090469 71.377327 9.70107165 79 10 C76.34090576 13.17935181 72.94231662 14.68692252 69.25 16.375 C68.58677734 16.67954102 67.92355469 16.98408203 67.24023438 17.29785156 C52.30346394 24.00458843 36.96232012 28.17641885 20.5625 28.4375 C19.73403564 28.45981689 18.90557129 28.48213379 18.05200195 28.50512695 C11.65960793 28.48129637 6.13015204 27.03877857 1.43603516 22.48168945 C-2.44374807 17.94332233 -3.27184873 15.18812823 -3.234375 9.3984375 C-2.88386249 5.81152615 -1.63163103 3.19527744 0 0 Z " fill="#ED902D" transform="translate(108,117)"/>
<path d="M0 0 C0.9796875 0.00322266 1.959375 0.00644531 2.96875 0.00976562 C3.98453125 0.01814453 5.0003125 0.02652344 6.046875 0.03515625 C7.59375 0.04192383 7.59375 0.04192383 9.171875 0.04882812 C11.71360073 0.06059537 14.25520819 0.07703614 16.796875 0.09765625 C16.18409888 3.05940748 15.54314978 4.47824408 13.796875 7.09765625 C11.91748047 7.43823242 11.91748047 7.43823242 9.6640625 7.390625 C8.85839844 7.38095703 8.05273438 7.37128906 7.22265625 7.36132812 C6.38089844 7.33619141 5.53914063 7.31105469 4.671875 7.28515625 C3.82238281 7.27162109 2.97289063 7.25808594 2.09765625 7.24414062 C-0.00287337 7.20873844 -2.10307793 7.15493026 -4.203125 7.09765625 C-4.203125 7.75765625 -4.203125 8.41765625 -4.203125 9.09765625 C-3.11773437 9.06285156 -2.03234375 9.02804688 -0.9140625 8.9921875 C0.53123442 8.96403237 1.97654821 8.93673406 3.421875 8.91015625 C4.49115234 8.87245117 4.49115234 8.87245117 5.58203125 8.83398438 C10.41963916 8.76741179 13.54425838 9.54206172 17.796875 12.09765625 C18.16368723 19.55617153 18.16368723 19.55617153 16.484375 22.03515625 C13.02057628 24.21606656 10.0133804 24.21550653 6.03515625 24.1953125 C4.91689453 24.19208984 3.79863281 24.18886719 2.64648438 24.18554688 C1.47923828 24.17716797 0.31199219 24.16878906 -0.890625 24.16015625 C-2.06947266 24.15564453 -3.24832031 24.15113281 -4.46289062 24.14648438 C-7.37635289 24.13468898 -10.28971363 24.11822895 -13.203125 24.09765625 C-11.99931052 21.60404054 -10.74883778 19.41622542 -9.203125 17.09765625 C-7.32373047 16.6652832 -7.32373047 16.6652832 -5.0703125 16.5859375 C-3.86181641 16.53276367 -3.86181641 16.53276367 -2.62890625 16.47851562 C-1.78714844 16.45595703 -0.94539063 16.43339844 -0.078125 16.41015625 C0.77136719 16.37599609 1.62085937 16.34183594 2.49609375 16.30664062 C4.59588605 16.22406452 6.69636064 16.15918647 8.796875 16.09765625 C7.53230469 15.98808594 6.26773438 15.87851563 4.96484375 15.765625 C3.30462014 15.6061685 1.64446733 15.44597374 -0.015625 15.28515625 C-1.26569336 15.17977539 -1.26569336 15.17977539 -2.54101562 15.07226562 C-3.34345703 14.99169922 -4.14589844 14.91113281 -4.97265625 14.828125 C-5.71104736 14.76004639 -6.44943848 14.69196777 -7.21020508 14.62182617 C-9.6950152 13.96828123 -10.6656563 13.14075747 -12.203125 11.09765625 C-12.84927885 5.06688702 -12.84927885 5.06688702 -10.953125 2.22265625 C-7.50098979 0.00342647 -4.01892301 -0.02336583 0 0 Z " fill="#010101" transform="translate(73.203125,77.90234375)"/>
<path d="M0 0 C8.91 0 17.82 0 27 0 C25.02 2.97 25.02 2.97 23 6 C20.10405649 6.46211865 18.09502976 6.584747 15.25 6.375 C14.20392578 6.33439453 14.20392578 6.33439453 13.13671875 6.29296875 C11.42314295 6.22254783 9.71116698 6.11492913 8 6 C8 6.66 8 7.32 8 8 C13.94 8 19.88 8 26 8 C24.02 10.97 24.02 10.97 22 14 C18.546875 14.5859375 18.546875 14.5859375 14.75 14.375 C13.48671875 14.32085937 12.2234375 14.26671875 10.921875 14.2109375 C9.47554687 14.10652344 9.47554687 14.10652344 8 14 C8 14.66 8 15.32 8 16 C14.27 16 20.54 16 27 16 C25 20 25 20 23 23 C20.66162109 23.34057617 20.66162109 23.34057617 17.7734375 23.29296875 C16.84450684 23.28547607 15.91557617 23.2779834 14.95849609 23.27026367 C13.77594238 23.24295166 12.59338867 23.21563965 11.375 23.1875 C5.744375 23.0946875 5.744375 23.0946875 0 23 C0 15.41 0 7.82 0 0 Z " fill="#020202" transform="translate(93,79)"/>
<path d="M0 0 C8.58 0 17.16 0 26 0 C24 4 24 4 22 6 C18.7421875 6.1953125 18.7421875 6.1953125 14.875 6.125 C12.95300781 6.09792969 12.95300781 6.09792969 10.9921875 6.0703125 C9.51105469 6.03550781 9.51105469 6.03550781 8 6 C8 6.66 8 7.32 8 8 C13.61 8 19.22 8 25 8 C24 10 23 12 22 14 C17.38 14 12.76 14 8 14 C8 14.66 8 15.32 8 16 C14.27 16 20.54 16 27 16 C23 22 23 22 22 23 C20.36527118 23.08700342 18.72685945 23.10701063 17.08984375 23.09765625 C16.199021 23.09515869 15.30819824 23.09266113 14.39038086 23.09008789 C13.25093018 23.08098389 12.11147949 23.07187988 10.9375 23.0625 C7.328125 23.041875 3.71875 23.02125 0 23 C0 15.41 0 7.82 0 0 Z " fill="#020202" transform="translate(151,79)"/>
<path d="M0 0 C1.54204102 0.00966797 1.54204102 0.00966797 3.11523438 0.01953125 C4.18708984 0.03628906 5.25894531 0.05304688 6.36328125 0.0703125 C7.44673828 0.07933594 8.53019531 0.08835937 9.64648438 0.09765625 C12.32313835 0.1212391 14.99934922 0.15415124 17.67578125 0.1953125 C14.80078125 5.0703125 14.80078125 5.0703125 13.67578125 6.1953125 C10.11748044 6.44102637 6.56006561 6.57970387 2.99609375 6.71875 C-0.26778811 6.92614632 -0.26778811 6.92614632 -2.28125 8.6015625 C-3.54680877 10.17659497 -3.54680877 10.17659497 -3.13671875 12.3203125 C-2.48066215 14.38495382 -2.48066215 14.38495382 -0.32421875 15.1953125 C1.04924475 15.34536223 2.42863385 15.44369256 3.80859375 15.51171875 C4.61425781 15.55361328 5.41992188 15.59550781 6.25 15.63867188 C7.09175781 15.67798828 7.93351562 15.71730469 8.80078125 15.7578125 C10.07501953 15.82258789 10.07501953 15.82258789 11.375 15.88867188 C13.47506348 15.99485486 15.57540073 16.09559747 17.67578125 16.1953125 C16.47196677 18.68892821 15.22149403 20.87674333 13.67578125 23.1953125 C6.80136732 24.02452196 -0.94266999 24.10862824 -7.32421875 21.1953125 C-10.90677163 17.98987045 -12.1069371 14.87013051 -12.49609375 10.19140625 C-12.20128712 6.76762926 -10.50374741 4.73809594 -8.32421875 2.1953125 C-4.97302356 -0.03881763 -3.90644325 -0.04316512 0 0 Z " fill="#020202" transform="translate(190.32421875,78.8046875)"/>
<path d="M0 0 C1.07878418 0.01047363 2.15756836 0.02094727 3.26904297 0.03173828 C5.01894531 0.04140625 5.01894531 0.04140625 6.80419922 0.05126953 C8.02751953 0.06802734 9.25083984 0.08478516 10.51123047 0.10205078 C11.74228516 0.11107422 12.97333984 0.12009766 14.24169922 0.12939453 C17.29006862 0.1530253 20.33805429 0.18597024 23.38623047 0.22705078 C22.31221939 3.1422237 21.60812871 5.00515254 19.38623047 7.22705078 C16.74623047 7.22705078 14.10623047 7.22705078 11.38623047 7.22705078 C11.38623047 12.83705078 11.38623047 18.44705078 11.38623047 24.22705078 C8.74623047 24.22705078 6.10623047 24.22705078 3.38623047 24.22705078 C3.38623047 18.61705078 3.38623047 13.00705078 3.38623047 7.22705078 C0.08623047 7.22705078 -3.21376953 7.22705078 -6.61376953 7.22705078 C-4.08180472 0.35457485 -4.08180472 0.35457485 0 0 Z " fill="#010101" transform="translate(214.61376953125,77.77294921875)"/>
<path d="M0 0 C1.084021 0.00523682 2.16804199 0.01047363 3.28491211 0.01586914 C5.03964844 0.02070312 5.03964844 0.02070312 6.82983398 0.02563477 C8.67738281 0.03820312 8.67738281 0.03820312 10.56225586 0.05102539 C12.41560547 0.05779297 12.41560547 0.05779297 14.30639648 0.06469727 C17.37089703 0.07652931 20.43530307 0.09301366 23.49975586 0.11352539 C22.29594138 2.6071411 21.04546864 4.79495622 19.49975586 7.11352539 C17.55444336 7.40649414 17.55444336 7.40649414 15.37475586 7.30102539 C14.09600586 7.23915039 12.81725586 7.17727539 11.49975586 7.11352539 C11.51135742 8.25692383 11.52295898 9.40032227 11.53491211 10.57836914 C11.54428874 12.06925293 11.55338907 13.56013848 11.56225586 15.05102539 C11.57063477 15.80577148 11.57901367 16.56051758 11.58764648 17.33813477 C11.59628027 19.26346852 11.55199919 21.1888812 11.49975586 23.11352539 C11.16975586 23.44352539 10.83975586 23.77352539 10.49975586 24.11352539 C8.18975586 24.11352539 5.87975586 24.11352539 3.49975586 24.11352539 C3.49975586 18.50352539 3.49975586 12.89352539 3.49975586 7.11352539 C-0.13024414 7.11352539 -3.76024414 7.11352539 -7.50024414 7.11352539 C-2.89504659 0.13145168 -2.89504659 0.13145168 0 0 Z " fill="#010102" transform="translate(126.500244140625,77.886474609375)"/>
<path d="M0 0 C0.97646484 0.04833984 1.95292969 0.09667969 2.95898438 0.14648438 C4.47008789 0.2305957 4.47008789 0.2305957 6.01171875 0.31640625 C7.55182617 0.3947168 7.55182617 0.3947168 9.12304688 0.47460938 C11.64877962 0.60383291 14.17407136 0.73877916 16.69921875 0.87890625 C14.71921875 1.86890625 14.71921875 1.86890625 12.69921875 2.87890625 C12.69921875 3.86890625 12.69921875 4.85890625 12.69921875 5.87890625 C12.03921875 6.20890625 11.37921875 6.53890625 10.69921875 6.87890625 C11.19421875 7.86890625 11.19421875 7.86890625 11.69921875 8.87890625 C5.75921875 8.87890625 -0.18078125 8.87890625 -6.30078125 8.87890625 C-6.30078125 9.86890625 -6.30078125 10.85890625 -6.30078125 11.87890625 C-7.86044717 12.24535203 -9.42370776 12.59651487 -10.98828125 12.94140625 C-11.85839844 13.13863281 -12.72851562 13.33585937 -13.625 13.5390625 C-16.46079401 13.89922904 -18.54868107 13.58800594 -21.30078125 12.87890625 C-20.84703125 12.48703125 -20.39328125 12.09515625 -19.92578125 11.69140625 C-18.11502372 9.92548402 -18.11502372 9.92548402 -17.48828125 7.25390625 C-17.09640625 6.47015625 -16.70453125 5.68640625 -16.30078125 4.87890625 C-13.17578125 4.06640625 -13.17578125 4.06640625 -10.30078125 3.87890625 C-10.30078125 2.88890625 -10.30078125 1.89890625 -10.30078125 0.87890625 C-6.75064296 0.04802282 -3.63668758 -0.19140461 0 0 Z " fill="#39A5DC" transform="translate(215.30078125,36.12109375)"/>
<path d="M0 0 C0.99386719 0.10183594 1.98773438 0.20367187 3.01171875 0.30859375 C3.77097656 0.39238281 4.53023438 0.47617188 5.3125 0.5625 C5.3125 1.2225 5.3125 1.8825 5.3125 2.5625 C4.6525 2.5625 3.9925 2.5625 3.3125 2.5625 C3.3125 5.5325 3.3125 8.5025 3.3125 11.5625 C2.3225 11.5625 1.3325 11.5625 0.3125 11.5625 C0.3125 8.5925 0.3125 5.6225 0.3125 2.5625 C-0.6775 2.8925 -1.6675 3.2225 -2.6875 3.5625 C-4.875 3.125 -4.875 3.125 -6.6875 2.5625 C-6.6875 4.2125 -6.6875 5.8625 -6.6875 7.5625 C-5.0375 7.5625 -3.3875 7.5625 -1.6875 7.5625 C-2.0175 8.8825 -2.3475 10.2025 -2.6875 11.5625 C-5.5625 11.25 -5.5625 11.25 -8.6875 10.5625 C-9.3475 9.5725 -10.0075 8.5825 -10.6875 7.5625 C-12.74675139 6.83867533 -12.74675139 6.83867533 -14.6875 6.5625 C-14.6875 7.2225 -14.6875 7.8825 -14.6875 8.5625 C-13.3675 8.5625 -12.0475 8.5625 -10.6875 8.5625 C-10.6875 9.5525 -10.6875 10.5425 -10.6875 11.5625 C-12.9975 11.5625 -15.3075 11.5625 -17.6875 11.5625 C-17.6875 8.5925 -17.6875 5.6225 -17.6875 2.5625 C-18.3475 2.5625 -19.0075 2.5625 -19.6875 2.5625 C-19.6875 5.5325 -19.6875 8.5025 -19.6875 11.5625 C-20.6775 11.5625 -21.6675 11.5625 -22.6875 11.5625 C-22.6875 8.5925 -22.6875 5.6225 -22.6875 2.5625 C-23.3475 2.5625 -24.0075 2.5625 -24.6875 2.5625 C-24.6875 1.9025 -24.6875 1.2425 -24.6875 0.5625 C-20.0675 0.5625 -15.4475 0.5625 -10.6875 0.5625 C-10.6875 1.5525 -10.6875 2.5425 -10.6875 3.5625 C-10.0275 2.5725 -9.3675 1.5825 -8.6875 0.5625 C-5.3763987 -0.54120043 -3.44001051 -0.36423641 0 0 Z " fill="#0F100E" transform="translate(279.6875,110.4375)"/>
<path d="M0 0 C2.625 0.4375 2.625 0.4375 4.8125 2.5625 C6.7352785 5.61242452 7.97209239 7.88278078 8.625 11.4375 C7.09850518 15.67776339 4.96120797 18.446417 1.625 21.4375 C-2.19517001 19.93671893 -4.12870799 17.84566719 -6.375 14.4375 C-7.60722206 10.57653754 -7.59170799 8.97411025 -6.0625 5.1875 C-3.24620701 0.5979855 -3.24620701 0.5979855 0 0 Z M-0.375 2.4375 C-1.695 3.7575 -3.015 5.0775 -4.375 6.4375 C-1.51322943 7.86838528 0.55875773 7.03741697 3.625 6.4375 C3.295 5.4475 2.965 4.4575 2.625 3.4375 C1.635 3.1075 0.645 2.7775 -0.375 2.4375 Z M-4.375 9.4375 C-3.375 12.4375 -3.375 12.4375 -3.375 12.4375 Z M4.625 9.4375 C5.625 13.4375 5.625 13.4375 5.625 13.4375 Z M-2.375 12.4375 C-1.375 14.4375 -1.375 14.4375 -1.375 14.4375 Z M1.625 12.4375 C2.625 14.4375 2.625 14.4375 2.625 14.4375 Z " fill="#121113" transform="translate(125.375,105.5625)"/>
<path d="M0 0 C0 1.32 0 2.64 0 4 C0.33 2.68 0.66 1.36 1 0 C3.31 0 5.62 0 8 0 C8 0.99 8 1.98 8 3 C8.391875 2.525625 8.78375 2.05125 9.1875 1.5625 C11.40808374 -0.35179633 13.13375709 -0.61266988 16 -1 C16.33 0.32 16.66 1.64 17 3 C14.525 2.505 14.525 2.505 12 2 C12 3.65 12 5.3 12 7 C13.65 7 15.3 7 17 7 C16.67 8.32 16.34 9.64 16 11 C13.125 10.6875 13.125 10.6875 10 10 C9.34 9.01 8.68 8.02 8 7 C5.94074861 6.27617533 5.94074861 6.27617533 4 6 C4 6.66 4 7.32 4 8 C5.32 8 6.64 8 8 8 C8 8.99 8 9.98 8 11 C-1.25 11 -1.25 11 -6 10 C-6.33 9.01 -6.66 8.02 -7 7 C-4.525 7.495 -4.525 7.495 -2 8 C-2 7.34 -2 6.68 -2 6 C-3.32 5.67 -4.64 5.34 -6 5 C-6 3.35 -6 1.7 -6 0 C-3.50907189 -1.24546405 -2.58919267 -0.7767578 0 0 Z " fill="#11100E" transform="translate(147,111)"/>
<path d="M0 0 C2.97 0 5.94 0 9 0 C8.55527344 1.05960937 8.55527344 1.05960937 8.1015625 2.140625 C5.07390591 9.99964849 3.57979629 17.59592588 4 26 C1 25 1 25 -0.66796875 22.37890625 C-2.14130482 18.64155815 -2.36911389 15.93966677 -2.3125 11.9375 C-2.30863281 10.75027344 -2.30476563 9.56304687 -2.30078125 8.33984375 C-2.01296434 5.14395473 -1.36655701 2.88011418 0 0 Z " fill="#43A2D3" transform="translate(94,110)"/>
<path d="M0 0 C3.31232698 -0.08834684 6.62434435 -0.14083584 9.9375 -0.1875 C10.86369141 -0.21263672 11.78988281 -0.23777344 12.74414062 -0.26367188 C20.31447291 -0.34335958 26.63195607 0.75463738 33 5 C35 7 35 7 36 10 C30.04676574 10.19599125 24.43470086 9.4385375 18.5625 8.5 C17.17901367 8.28537109 17.17901367 8.28537109 15.76757812 8.06640625 C13.51093993 7.71563347 11.25517147 7.36006135 9 7 C9 6.34 9 5.68 9 5 C12.98196457 3.94595055 15.98195309 4.15901344 20 5 C19.67 3.68 19.34 2.36 19 1 C12.73 1 6.46 1 0 1 C0 0.67 0 0.34 0 0 Z " fill="#EB9134" transform="translate(199,24)"/>
<path d="M0 0 C1.98 0 3.96 0 6 0 C6.33 1.65 6.66 3.3 7 5 C7.33 3.35 7.66 1.7 8 0 C10.31 0 12.62 0 15 0 C14.67 1.98 14.34 3.96 14 6 C13.01 6 12.02 6 11 6 C11 6.66 11 7.32 11 8 C12.32 8 13.64 8 15 8 C15 8.99 15 9.98 15 11 C10 11 5 11 0 11 C0 7.37 0 3.74 0 0 Z M3 2 C4 4 4 4 4 4 Z " fill="#10110C" transform="translate(175,111)"/>
<path d="M0 0 C0.33 1.32 0.66 2.64 1 4 C-0.65 4.33 -2.3 4.66 -4 5 C-3.67 5.99 -3.34 6.98 -3 8 C-4.65 8.33 -6.3 8.66 -8 9 C-8 9.66 -8 10.32 -8 11 C-11.82989106 12.80230168 -14.78121808 13.19622241 -19 13 C-19 12.34 -19 11.68 -19 11 C-20.98 11.33 -22.96 11.66 -25 12 C-25 11.34 -25 10.68 -25 10 C-25.66 10 -26.32 10 -27 10 C-26.67 9.34 -26.34 8.68 -26 8 C-23.36 8.33 -20.72 8.66 -18 9 C-18.33 8.34 -18.66 7.68 -19 7 C-16.03 7.495 -16.03 7.495 -13 8 C-12.690625 7.360625 -12.38125 6.72125 -12.0625 6.0625 C-11 4 -11 4 -10 3 C-8.33382885 2.95936168 -6.66611905 2.957279 -5 3 C-5 2.34 -5 1.68 -5 1 C-2 0 -2 0 0 0 Z " fill="#38A5DF" transform="translate(193,42)"/>
<path d="M0 0 C2.06298828 -0.34057617 2.06298828 -0.34057617 4.5703125 -0.29296875 C5.46621094 -0.28330078 6.36210937 -0.27363281 7.28515625 -0.26367188 C8.69087891 -0.2259668 8.69087891 -0.2259668 10.125 -0.1875 C11.06988281 -0.17396484 12.01476562 -0.16042969 12.98828125 -0.14648438 C15.32608779 -0.11106306 17.66276237 -0.06167271 20 0 C20.33 1.32 20.66 2.64 21 4 C17.37 4 13.74 4 10 4 C10 4.66 10 5.32 10 6 C6.04 6 2.08 6 -2 6 C-2 3 -2 3 0 0 Z " fill="#F18F27" transform="translate(198,25)"/>
<path d="M0 0 C1 3 1 3 1 5 C2.98 5.66 4.96 6.32 7 7 C5.39441516 8.92536938 4.52230522 9.91074167 2.00708008 10.34057617 C1.26868896 10.32486572 0.53029785 10.30915527 -0.23046875 10.29296875 C-1.03291016 10.28330078 -1.83535156 10.27363281 -2.66210938 10.26367188 C-3.49548828 10.23853516 -4.32886719 10.21339844 -5.1875 10.1875 C-6.03248047 10.17396484 -6.87746094 10.16042969 -7.74804688 10.14648438 C-9.83230384 10.11115799 -11.91623277 10.05735139 -14 10 C-10.93411513 6.75985525 -8.14372319 4.25418376 -4.1875 2.1875 C-3.39730469 1.76855469 -2.60710937 1.34960938 -1.79296875 0.91796875 C-1.20128906 0.61503906 -0.60960937 0.31210937 0 0 Z " fill="#3EA2D6" transform="translate(145,61)"/>
<path d="M0 0 C0.33 0 0.66 0 1 0 C2 5 3 10 4 15 C2.02 15.99 2.02 15.99 0 17 C0.33 18.32 0.66 19.64 1 21 C-2.86166125 17.30623707 -2.86166125 17.30623707 -3.203125 14.08203125 C-3.31692164 8.57237714 -2.5078392 4.91118511 0 0 Z " fill="#E4923C" transform="translate(108,117)"/>
<path d="M0 0 C2 2 2 2 2.3125 5.5 C2.1578125 7.2325 2.1578125 7.2325 2 9 C-1 11 -1 11 -4.0625 10.75 C-7 10 -7 10 -9 8 C-9.375 5.0625 -9.375 5.0625 -9 2 C-6.12524616 -1.3006433 -4.03854228 -1.38160657 0 0 Z M-5 2 C-5.33 3.65 -5.66 5.3 -6 7 C-3.525 7.495 -3.525 7.495 -1 8 C-0.3185177 6.10820797 -0.3185177 6.10820797 0 4 C-0.66 3.34 -1.32 2.68 -2 2 C-2.99 2 -3.98 2 -5 2 Z " fill="#151512" transform="translate(253,111)"/>
<path d="M0 0 C2 2 2 2 2.3125 4.9375 C2 8 2 8 0.8125 9.875 C-1.65507108 11.40659584 -3.14519831 11.42822025 -6 11 C-7.8125 9.875 -7.8125 9.875 -9 8 C-9.4375 5 -9.4375 5 -9 2 C-6.12524616 -1.3006433 -4.03854228 -1.38160657 0 0 Z M-5 2 C-5.66 3.32 -6.32 4.64 -7 6 C-6.34 6.66 -5.68 7.32 -5 8 C-3.68 8 -2.36 8 -1 8 C-0.3185177 6.10820797 -0.3185177 6.10820797 0 4 C-0.66 3.34 -1.32 2.68 -2 2 C-2.99 2 -3.98 2 -5 2 Z " fill="#0D0D0C" transform="translate(306,111)"/>
<path d="M0 0 C0.66 0.33 1.32 0.66 2 1 C1.67 2.32 1.34 3.64 1 5 C0.34 5 -0.32 5 -1 5 C-1 6.65 -1 8.3 -1 10 C-3.77100394 11.38550197 -5.9334706 11.1877467 -9 11 C-9.99 10.34 -10.98 9.68 -12 9 C-11.67 7.02 -11.34 5.04 -11 3 C-10.34 3.66 -9.68 4.32 -9 5 C-6.06546739 4.63318342 -5.13562754 4.13562754 -3 2 C-2.34 2 -1.68 2 -1 2 C-0.67 1.34 -0.34 0.68 0 0 Z " fill="#39A6DE" transform="translate(157,57)"/>
<path d="M0 0 C3.59676823 0.89919206 4.54777028 2.52835975 6.5 5.625 C7.75 8.9375 7.75 8.9375 8.5 11.625 C7.51 11.625 6.52 11.625 5.5 11.625 C4.84 12.285 4.18 12.945 3.5 13.625 C3.5 12.635 3.5 11.645 3.5 10.625 C2.18 10.625 0.86 10.625 -0.5 10.625 C-0.83 9.305 -1.16 7.985 -1.5 6.625 C0.15 6.625 1.8 6.625 3.5 6.625 C2.51 5.635 1.52 4.645 0.5 3.625 C-2.49332739 4.6227758 -3.44766315 5.3772025 -5.5 7.625 C-5.83 6.965 -6.16 6.305 -6.5 5.625 C-3.2518797 0.81296992 -3.2518797 0.81296992 0 0 Z " fill="#090A0C" transform="translate(125.5,105.375)"/>
<path d="M0 0 C-2.97 0.66 -5.94 1.32 -9 2 C-9 2.66 -9 3.32 -9 4 C-9.94875 4.2475 -10.8975 4.495 -11.875 4.75 C-15.08693191 5.6857077 -15.08693191 5.6857077 -16.375 8.125 C-16.58125 8.74375 -16.7875 9.3625 -17 10 C-18.65 9.67 -20.3 9.34 -22 9 C-21.67 9.66 -21.34 10.32 -21 11 C-23.97 10.67 -26.94 10.34 -30 10 C-27.28593904 7.81259382 -24.83541337 6.38644372 -21.55859375 5.2109375 C-20.72779297 4.90929688 -19.89699219 4.60765625 -19.04101562 4.296875 C-18.18185547 3.99265625 -17.32269531 3.6884375 -16.4375 3.375 C-15.14295898 2.90707031 -15.14295898 2.90707031 -13.82226562 2.4296875 C-4.18265789 -1.04566447 -4.18265789 -1.04566447 0 0 Z " fill="#439CC8" transform="translate(197,41)"/>
<path d="M0 0 C3.375 -0.1875 3.375 -0.1875 7 0 C9 3 9 3 8.8125 6.0625 C8 9 8 9 5 11 C3.35 11 1.7 11 0 11 C0 7.37 0 3.74 0 0 Z M3 2 C3 3.98 3 5.96 3 8 C3.99 7.67 4.98 7.34 6 7 C5.67 5.35 5.34 3.7 5 2 C4.34 2 3.68 2 3 2 Z " fill="#141412" transform="translate(331,111)"/>
<path d="M0 0 C1.9375 0.75 1.9375 0.75 4 2 C4.75 4.125 4.75 4.125 5 6 C1.3321148 7.96189209 -1.87248551 9.39301257 -6 10 C-6.33 8.35 -6.66 6.7 -7 5 C-4.69 3.35 -2.38 1.7 0 0 Z " fill="#EB8E33" transform="translate(142,46)"/>
<path d="M0 0 C0.99 0 1.98 0 3 0 C3 2.64 3 5.28 3 8 C3.99 8 4.98 8 6 8 C6 5.36 6 2.72 6 0 C6.99 0 7.98 0 9 0 C9.125 6.625 9.125 6.625 8 10 C5.6875 10.625 5.6875 10.625 3 11 C2.01 10.34 1.02 9.68 0 9 C-0.29296875 6.8359375 -0.29296875 6.8359375 -0.1875 4.375 C-0.16042969 3.55773437 -0.13335937 2.74046875 -0.10546875 1.8984375 C-0.05326172 0.95871094 -0.05326172 0.95871094 0 0 Z " fill="#0F0F0E" transform="translate(309,111)"/>
<path d="M0 0 C0.99 0 1.98 0 3 0 C3 2.64 3 5.28 3 8 C3.99 8 4.98 8 6 8 C6 5.36 6 2.72 6 0 C6.99 0 7.98 0 9 0 C9.36248013 7.37042925 9.36248013 7.37042925 7.8125 10.0625 C6 11 6 11 3.375 10.8125 C1 10 1 10 0 8 C-0.13415472 5.3276379 -0.04318541 2.67749512 0 0 Z " fill="#110F0F" transform="translate(165,111)"/>
<path d="M0 0 C1.98 1.65 3.96 3.3 6 5 C6.33 3.68 6.66 2.36 7 1 C7.66 1 8.32 1 9 1 C9 4.63 9 8.26 9 12 C7.02 10.35 5.04 8.7 3 7 C2.67 8.65 2.34 10.3 2 12 C1.34 12 0.68 12 0 12 C0 8.04 0 4.08 0 0 Z " fill="#0E0E0D" transform="translate(205,110)"/>
<path d="M0 0 C2.67901932 2.31881505 3.66204403 4.31814468 4.6875 7.6875 C5.06455078 8.89986328 5.06455078 8.89986328 5.44921875 10.13671875 C5.63097656 10.75160156 5.81273437 11.36648437 6 12 C5.01 12 4.02 12 3 12 C2.67 11.34 2.34 10.68 2 10 C1.01 10 0.02 10 -1 10 C-1.33 10.66 -1.66 11.32 -2 12 C-2.99 12 -3.98 12 -5 12 C-3.68938409 7.76570244 -2.05643741 3.92592596 0 0 Z " fill="#101311" transform="translate(359,110)"/>
<path d="M0 0 C0.33 0.66 0.66 1.32 1 2 C1.66 2.33 2.32 2.66 3 3 C2.67 3.66 2.34 4.32 2 5 C2.99 5 3.98 5 5 5 C5.33 5.66 5.66 6.32 6 7 C8.02463255 7.65213292 8.02463255 7.65213292 10 8 C10 8.66 10 9.32 10 10 C2.375 11.25 2.375 11.25 -1 9 C-2.6875 7.5 -2.6875 7.5 -4 6 C-4 4 -4 4 -2 1.875 C-1.34 1.25625 -0.68 0.6375 0 0 Z " fill="#F28E24" transform="translate(112,130)"/>
<path d="M0 0 C2.67901932 2.31881505 3.66204403 4.31814468 4.6875 7.6875 C5.06455078 8.89986328 5.06455078 8.89986328 5.44921875 10.13671875 C5.63097656 10.75160156 5.81273437 11.36648437 6 12 C5.01 12 4.02 12 3 12 C2.67 11.34 2.34 10.68 2 10 C1.01 10 0.02 10 -1 10 C-1.33 10.66 -1.66 11.32 -2 12 C-2.99 12 -3.98 12 -5 12 C-4.54738642 10.56068883 -4.08767021 9.12361001 -3.625 7.6875 C-3.24214844 6.48673828 -3.24214844 6.48673828 -2.8515625 5.26171875 C-2 3 -2 3 0 0 Z M0 5 C1 7 1 7 1 7 Z " fill="#111110" transform="translate(344,110)"/>
<path d="M0 0 C5.75 -0.125 5.75 -0.125 8 1 C8.29296875 7.0546875 8.29296875 7.0546875 8 9 C5 11 5 11 0 11 C0 7.37 0 3.74 0 0 Z M2 2 C2 3.98 2 5.96 2 8 C3.32 7.67 4.64 7.34 6 7 C5.73323796 5.01508358 5.73323796 5.01508358 5 3 C4.01 2.67 3.02 2.34 2 2 Z " fill="#0F0F0F" transform="translate(216,111)"/>
<path d="M0 0 C0.66 0 1.32 0 2 0 C2.67354499 1.43429001 3.33859701 2.87257057 4 4.3125 C4.556875 5.51326172 4.556875 5.51326172 5.125 6.73828125 C6 9 6 9 6 12 C5.01 11.67 4.02 11.34 3 11 C3 10.34 3 9.68 3 9 C1.68 9 0.36 9 -1 9 C-1.33 9.99 -1.66 10.98 -2 12 C-2.66 12 -3.32 12 -4 12 C-3.33501617 7.61110675 -1.81242323 4.0188515 0 0 Z " fill="#0E0E0E" transform="translate(198,110)"/>
<path d="M0 0 C0.33 1.32 0.66 2.64 1 4 C1.721875 3.690625 2.44375 3.38125 3.1875 3.0625 C5.80307309 2.07439461 8.25118982 1.4712246 11 1 C2.55172414 8 2.55172414 8 -1 8 C-1 6.35 -1 4.7 -1 3 C-1.99 3 -2.98 3 -4 3 C-4 3.99 -4 4.98 -4 6 C-8.455 7.485 -8.455 7.485 -13 9 C-4.5 0 -4.5 0 0 0 Z " fill="#DE8F3E" transform="translate(135,52)"/>
<path d="M0 0 C1.98 0 3.96 0 6 0 C6.93423645 3.01031744 7.04449911 3.86650268 6 7 C6.38932856 9.14255793 6.38932856 9.14255793 7 11 C5.68 10.34 4.36 9.68 3 9 C2.67 9.66 2.34 10.32 2 11 C1.34 11 0.68 11 0 11 C0 7.37 0 3.74 0 0 Z M2 2 C2 2.66 2 3.32 2 4 C2.66 4 3.32 4 4 4 C4 3.34 4 2.68 4 2 C3.34 2 2.68 2 2 2 Z " fill="#0F0F0E" transform="translate(319,111)"/>
<path d="M0 0 C1.65 0 3.3 0 5 0 C6.77615437 1.77615437 6 4.60136388 6 7 C6.43941523 9.26566343 6.43941523 9.26566343 7 11 C6.01 11 5.02 11 4 11 C3.67 10.34 3.34 9.68 3 9 C2.67 9.66 2.34 10.32 2 11 C1.34 11 0.68 11 0 11 C0 7.37 0 3.74 0 0 Z M2 2 C2 2.66 2 3.32 2 4 C2.66 3.67 3.32 3.34 4 3 C3.34 2.67 2.68 2.34 2 2 Z " fill="#131311" transform="translate(237,111)"/>
<path d="M0 0 C3.35409194 -0.05859857 6.70805017 -0.09379582 10.0625 -0.125 C11.47692383 -0.15013672 11.47692383 -0.15013672 12.91992188 -0.17578125 C18.36523938 -0.21372771 22.85499388 0.18747357 28 2 C28 2.66 28 3.32 28 4 C25.36 4.33 22.72 4.66 20 5 C19.67 3.68 19.34 2.36 19 1 C12.73 1 6.46 1 0 1 C0 0.67 0 0.34 0 0 Z " fill="#E39435" transform="translate(199,24)"/>
<path d="M0 0 C4.29 0 8.58 0 13 0 C10.49147051 2.50852949 8.98701988 3.72239004 5.9375 5.25 C5.24527344 5.60578125 4.55304688 5.9615625 3.83984375 6.328125 C3.23269531 6.54984375 2.62554687 6.7715625 2 7 C1.34 6.67 0.68 6.34 0 6 C0.33 5.01 0.66 4.02 1 3 C0.67 2.01 0.34 1.02 0 0 Z " fill="#E5933D" transform="translate(174,127)"/>
<path d="M0 0 C1.32 0.33 2.64 0.66 4 1 C4 1.33 4 1.66 4 2 C7.96 2.33 11.92 2.66 16 3 C16 3.33 16 3.66 16 4 C9 5 9 5 2 6 C1.3311377 6.09555176 0.66227539 6.19110352 -0.02685547 6.28955078 C-1.68457031 6.52636719 -3.34228516 6.76318359 -5 7 C-4.360625 6.21625 -3.72125 5.4325 -3.0625 4.625 C-1.01857687 2.20460719 -1.01857687 2.20460719 0 0 Z " fill="#E1903A" transform="translate(192,28)"/>
<path d="M0 0 C1.65 0 3.3 0 5 0 C5.33 1.65 5.66 3.3 6 5 C4.02 5.99 4.02 5.99 2 7 C2 8.32 2 9.64 2 11 C1.34 11 0.68 11 0 11 C0 7.37 0 3.74 0 0 Z M2 2 C3 4 3 4 3 4 Z " fill="#0F0F0E" transform="translate(230,111)"/>
<path d="M0 0 C0.99 0 1.98 0 3 0 C3 0.66 3 1.32 3 2 C3.66 2 4.32 2 5 2 C5 1.34 5 0.68 5 0 C6.32 0.33 7.64 0.66 9 1 C8.2884375 2.0828125 8.2884375 2.0828125 7.5625 3.1875 C6.05847097 5.89475226 5.43400818 7.96194275 5 11 C4.34 11 3.68 11 3 11 C2.01 7.37 1.02 3.74 0 0 Z " fill="#0D0E0D" transform="translate(289,111)"/>
<path d="M0 0 C0.33 0.66 0.66 1.32 1 2 C-0.62171239 2.38897161 -2.24754925 2.76078298 -3.875 3.125 C-4.77992188 3.33382812 -5.68484375 3.54265625 -6.6171875 3.7578125 C-7.40351563 3.83773437 -8.18984375 3.91765625 -9 4 C-9.66 3.34 -10.32 2.68 -11 2 C-10.34 2 -9.68 2 -9 2 C-9 1.01 -9 0.02 -9 -1 C-5.20980534 -2.26339822 -3.62477616 -1.49719015 0 0 Z " fill="#F18E25" transform="translate(159,136)"/>
<path d="M0 0 C2.16874252 0.50603992 3.99967627 0.99983813 6 2 C6 2.99 6 3.98 6 5 C1.58774263 6.47075246 -1.48281619 7.36884358 -6 6 C-3 4 -3 4 -1 4 C-0.67 2.68 -0.34 1.36 0 0 Z " fill="#F08F26" transform="translate(155,41)"/>
<path d="M0 0 C1.9375 0.8125 1.9375 0.8125 4 2 C4.33 2.99 4.66 3.98 5 5 C-1.20104812 5.27560214 -6.93184478 4.22899346 -13 3 C-13 2.67 -13 2.34 -13 2 C-9.04 2 -5.08 2 -1 2 C-0.67 1.34 -0.34 0.68 0 0 Z " fill="#CA924B" transform="translate(230,29)"/>
<path d="M0 0 C1.32 0 2.64 0 4 0 C3.37240135 2.92879371 2.41377341 5.36095629 1 8 C0.34 8 -0.32 8 -1 8 C-1.33 8.99 -1.66 9.98 -2 11 C-2.28571429 3.57142857 -2.28571429 3.57142857 0 0 Z " fill="#39A4DC" transform="translate(95,111)"/>
<path d="M0 0 C3.20395416 0 5.09399739 0.74335022 8 2 C7.34 3.65 6.68 5.3 6 7 C5.34 6.34 4.68 5.68 4 5 C2.68 5 1.36 5 0 5 C-0.5625 3.0625 -0.5625 3.0625 -1 1 C-0.67 0.67 -0.34 0.34 0 0 Z " fill="#1B191A" transform="translate(121,118)"/>
<path d="M0 0 C0.33 0.66 0.66 1.32 1 2 C0.071875 2.061875 -0.85625 2.12375 -1.8125 2.1875 C-5.19032311 2.68162299 -5.19032311 2.68162299 -6.8125 5.5625 C-7.204375 6.366875 -7.59625 7.17125 -8 8 C-8.33 8 -8.66 8 -9 8 C-9.25 5.1875 -9.25 5.1875 -9 2 C-6.14065279 -1.28295421 -4.02254502 -1.41332663 0 0 Z " fill="#0D0E0C" transform="translate(253,111)"/>
<path d="M0 0 C2.64 0 5.28 0 8 0 C8 0.66 8 1.32 8 2 C7.01 2 6.02 2 5 2 C5 4.97 5 7.94 5 11 C4.34 11 3.68 11 3 11 C3 8.03 3 5.06 3 2 C2.01 2 1.02 2 0 2 C0 1.34 0 0.68 0 0 Z " fill="#181916" transform="translate(348,111)"/>
<path d="M0 0 C1.2065625 0.0309375 1.2065625 0.0309375 2.4375 0.0625 C1.81875 0.495625 1.2 0.92875 0.5625 1.375 C-1.7822245 3.05990483 -1.7822245 3.05990483 -3.5625 6.0625 C-5.5078125 6.35546875 -5.5078125 6.35546875 -7.6875 6.25 C-8.96625 6.188125 -10.245 6.12625 -11.5625 6.0625 C-11.2325 5.4025 -10.9025 4.7425 -10.5625 4.0625 C-9.9025 4.0625 -9.2425 4.0625 -8.5625 4.0625 C-8.5625 3.4025 -8.5625 2.7425 -8.5625 2.0625 C-7.3559375 1.8459375 -7.3559375 1.8459375 -6.125 1.625 C-3.22295593 0.98796594 -2.96966232 0.07243079 0 0 Z " fill="#F18E23" transform="translate(193.5625,26.9375)"/>
<path d="M0 0 C0.88336837 2.4667645 1.1312406 3.63859372 0.22265625 6.140625 C-0.16019531 6.83671875 -0.54304688 7.5328125 -0.9375 8.25 C-1.31777344 8.95640625 -1.69804687 9.6628125 -2.08984375 10.390625 C-2.39019531 10.92171875 -2.69054687 11.4528125 -3 12 C-3.33 12 -3.66 12 -4 12 C-3.9129995 10.37399059 -3.8048219 8.74910322 -3.6875 7.125 C-3.62949219 6.22007813 -3.57148438 5.31515625 -3.51171875 4.3828125 C-3 2 -3 2 0 0 Z " fill="#4C9ABE" transform="translate(258,62)"/>
<path d="M0 0 C-0.99 0.33 -1.98 0.66 -3 1 C-3 1.99 -3 2.98 -3 4 C-8.61 3.67 -14.22 3.34 -20 3 C-20 2.67 -20 2.34 -20 2 C-17.60468244 1.66254646 -15.20885732 1.3299171 -12.8125 1 C-11.80219727 0.85691406 -11.80219727 0.85691406 -10.77148438 0.7109375 C-7.15335423 0.21675387 -3.65203599 -0.11346131 0 0 Z " fill="#E29440" transform="translate(153,134)"/>
<path d="M0 0 C2.31 0 4.62 0 7 0 C6.67 1.65 6.34 3.3 6 5 C5.38125 5.144375 4.7625 5.28875 4.125 5.4375 C1.96741678 5.93152225 1.96741678 5.93152225 0 7 C0 4.69 0 2.38 0 0 Z " fill="#0D0C0B" transform="translate(183,111)"/>
<path d="M0 0 C0.99 0.33 1.98 0.66 3 1 C3.36253776 6.43806647 3.36253776 6.43806647 1.75 8.9375 C0 10 0 10 -2.1875 9.6875 C-2.785625 9.460625 -3.38375 9.23375 -4 9 C-2.68 8.34 -1.36 7.68 0 7 C0 4.69 0 2.38 0 0 Z " fill="#131312" transform="translate(305,112)"/>
<path d="M0 0 C2.97 0 5.94 0 9 0 C7.92598892 2.91517292 7.22189824 4.77810176 5 7 C5 5.02 5 3.04 5 1 C3.68 1 2.36 1 1 1 C0.34 2.32 -0.32 3.64 -1 5 C-0.67 3.35 -0.34 1.7 0 0 Z " fill="#509CC4" transform="translate(94,110)"/>
<path d="M0 0 C0.66 0.33 1.32 0.66 2 1 C1.34 1.66 0.68 2.32 0 3 C4.29 3.33 8.58 3.66 13 4 C13 4.33 13 4.66 13 5 C7.06 5 1.12 5 -5 5 C-3.35 3.35 -1.7 1.7 0 0 Z " fill="#5692B2" transform="translate(136,66)"/>
<path d="M0 0 C1.9375 0.75 1.9375 0.75 4 2 C4.75 4.125 4.75 4.125 5 6 C3.02 6.33 1.04 6.66 -1 7 C-1.33 5.68 -1.66 4.36 -2 3 C-1.34 3 -0.68 3 0 3 C0 2.01 0 1.02 0 0 Z " fill="#F09325" transform="translate(142,46)"/>
<path d="M0 0 C1.65 0 3.3 0 5 0 C4.67 0.66 4.34 1.32 4 2 C3.34 2 2.68 2 2 2 C2 2.66 2 3.32 2 4 C3.32 4 4.64 4 6 4 C6 4.99 6 5.98 6 7 C4.35 6.67 2.7 6.34 1 6 C0 1.125 0 1.125 0 0 Z " fill="#171814" transform="translate(263,115)"/>
<path d="M0 0 C0 3 0 3 -1.5 4.6875 C-1.995 5.120625 -2.49 5.55375 -3 6 C-3.99 5.67 -4.98 5.34 -6 5 C-6 3.35 -6 1.7 -6 0 C-3.50907189 -1.24546405 -2.58919267 -0.7767578 0 0 Z " fill="#0E0E0C" transform="translate(147,111)"/>
<path d="M0 0 C2.97 0.495 2.97 0.495 6 1 C6 3.64 6 6.28 6 9 C5.01 9.495 5.01 9.495 4 10 C3.896875 9.05125 3.79375 8.1025 3.6875 7.125 C3.31460705 3.70892499 3.31460705 3.70892499 0 2 C0 1.34 0 0.68 0 0 Z " fill="#070807" transform="translate(218,111)"/>
<path d="M0 0 C2.97 0.33 5.94 0.66 9 1 C6.3139714 2.79068573 4.3373411 3.66055791 1.3125 4.625 C0.50425781 4.88539062 -0.30398437 5.14578125 -1.13671875 5.4140625 C-1.75160156 5.60742188 -2.36648437 5.80078125 -3 6 C-2.67 5.01 -2.34 4.02 -2 3 C-1.01 3 -0.02 3 1 3 C0.67 2.01 0.34 1.02 0 0 Z " fill="#489CCE" transform="translate(171,54)"/>
<path d="M0 0 C1.4606285 2.64738916 2 3.89448334 2 7 C3.32 7 4.64 7 6 7 C6 8.65 6 10.3 6 12 C3 11 3 11 1.3125 8.25 C0.06049331 5.14979295 -0.28970125 3.28328088 0 0 Z " fill="#559BB8" transform="translate(92,124)"/>
<path d="M0 0 C-0.99 0.495 -0.99 0.495 -2 1 C-2.33 1.99 -2.66 2.98 -3 4 C-5.64 3.67 -8.28 3.34 -11 3 C-4.23255814 -1.51162791 -4.23255814 -1.51162791 0 0 Z " fill="#E89440" transform="translate(173,128)"/>
<path d="M0 0 C4.29 0.99 8.58 1.98 13 3 C13 3.33 13 3.66 13 4 C8.545 4.495 8.545 4.495 4 5 C3.67 4.01 3.34 3.02 3 2 C2.01 2 1.02 2 0 2 C0 1.34 0 0.68 0 0 Z " fill="#E59145" transform="translate(114,133)"/>
<path d="M0 0 C0.99 0 1.98 0 3 0 C3 1.65 3 3.3 3 5 C0.69 5.33 -1.62 5.66 -4 6 C-4 5.34 -4 4.68 -4 4 C-2.68 3.67 -1.36 3.34 0 3 C0 2.01 0 1.02 0 0 Z " fill="#F28F27" transform="translate(131,55)"/>
<path d="M0 0 C2.875 0.25 2.875 0.25 6 1 C7.25 3 7.25 3 8 5 C8.66 5.33 9.32 5.66 10 6 C5.16743695 5.58578031 3.17320782 3.53586014 0 0 Z " fill="#E4923A" transform="translate(109,138)"/>
<path d="M0 0 C0.33 0.99 0.66 1.98 1 3 C0.67 3.66 0.34 4.32 0 5 C-2.31 5 -4.62 5 -7 5 C-2.25 1.125 -2.25 1.125 0 0 Z " fill="#4A9DC8" transform="translate(145,61)"/>
<path d="M0 0 C0 1.32 0 2.64 0 4 C-1.65 4 -3.3 4 -5 4 C-5.33 3.01 -5.66 2.02 -6 1 C-3 0 -3 0 0 0 Z " fill="#F28E26" transform="translate(121,65)"/>
<path d="M0 0 C0.33 0.66 0.66 1.32 1 2 C1.66 2.33 2.32 2.66 3 3 C2.34 3 1.68 3 1 3 C1 3.66 1 4.32 1 5 C0.34 5 -0.32 5 -1 5 C-1 5.66 -1 6.32 -1 7 C-1.99 6.67 -2.98 6.34 -4 6 C-4 4 -4 4 -2 1.875 C-1.34 1.25625 -0.68 0.6375 0 0 Z " fill="#F39B23" transform="translate(112,130)"/>
<path d="M0 0 C1.485 0.99 1.485 0.99 3 2 C2.67 3.32 2.34 4.64 2 6 C1.01 6 0.02 6 -1 6 C-1.042721 4.33388095 -1.04063832 2.66617115 -1 1 C-0.67 0.67 -0.34 0.34 0 0 Z " fill="#36AAE0" transform="translate(95,125)"/>
<path d="M0 0 C0.99 0.33 1.98 0.66 3 1 C3 1.66 3 2.32 3 3 C2.34 3 1.68 3 1 3 C1 4.65 1 6.3 1 8 C0.34 8 -0.32 8 -1 8 C-1.04241723 5.66705225 -1.04092937 3.33297433 -1 1 C-0.67 0.67 -0.34 0.34 0 0 Z " fill="#13120D" transform="translate(176,114)"/>
</svg>
