<?xml version="1.0" standalone="no"?>
<!DOCTYPE svg PUBLIC "-//W3C//DTD SVG 20010904//EN"
 "http://www.w3.org/TR/2001/REC-SVG-20010904/DTD/svg10.dtd">
<svg version="1.0" xmlns="http://www.w3.org/2000/svg"
 width="600.000000pt" height="250.000000pt" viewBox="0 0 600.000000 250.000000"
 preserveAspectRatio="xMidYMid meet">

<g transform="translate(0.000000,250.000000) scale(0.100000,-0.100000)"
fill="#000000" stroke="none">
<path d="M0 1250 l0 -1250 3000 0 3000 0 0 1250 0 1250 -3000 0 -3000 0 0
-1250z m2271 1060 c20 -6 44 -19 55 -31 18 -20 18 -20 -10 -10 -40 16 -163 13
-228 -4 -90 -23 -250 -98 -341 -159 -46 -31 -92 -56 -103 -56 -16 1 -14 5 11
26 44 37 182 127 240 157 51 25 190 73 235 80 49 8 105 7 141 -3z m3583 -72
c-43 -46 -128 -130 -189 -188 -60 -57 -27 -20 75 83 102 103 187 187 189 187
3 0 -31 -37 -75 -82z m-3417 -14 c41 -30 56 -67 47 -117 l-7 -42 -10 30 c-24
74 -73 99 -192 98 -110 0 -227 -32 -361 -98 -90 -45 -170 -62 -145 -31 17 20
225 120 302 145 102 33 147 40 246 37 75 -1 98 -6 120 -22z m-899 -224 c-11
-17 -24 -20 -75 -20 -34 0 -65 -4 -68 -10 -4 -6 16 -10 52 -10 32 0 69 -6 83
-13 32 -16 37 -50 11 -76 -18 -18 -33 -21 -117 -21 l-96 0 14 23 c13 19 26 22
87 25 92 4 93 22 1 22 -63 0 -71 2 -86 25 -15 23 -15 27 0 50 16 24 21 25 111
25 93 0 95 -1 83 -20z m220 0 c-10 -16 -24 -20 -65 -20 -28 0 -55 -4 -58 -10
-4 -6 18 -10 59 -10 36 0 66 -4 66 -8 0 -20 -28 -32 -77 -32 -29 0 -53 -4 -53
-10 0 -6 30 -10 70 -10 39 0 70 -3 70 -7 0 -3 -7 -15 -17 -25 -13 -14 -31 -18
-95 -18 l-78 0 0 85 0 85 95 0 c93 0 95 -1 83 -20z m232 12 c0 -17 -25 -32
-52 -32 -26 0 -27 -2 -30 -62 -3 -60 -4 -63 -30 -66 -28 -3 -28 -3 -28 57 l0
61 -35 0 c-38 0 -40 2 -25 31 9 17 22 19 105 19 52 0 95 -4 95 -8z m200 -12
c-9 -16 -21 -20 -65 -20 -30 0 -55 -4 -55 -10 0 -6 27 -10 60 -10 33 0 60 -4
60 -8 0 -20 -28 -32 -72 -32 -26 0 -48 -4 -48 -10 0 -6 28 -10 65 -10 68 0 73
-3 51 -32 -11 -15 -29 -18 -95 -18 l-81 0 0 85 0 85 95 0 c93 0 95 -1 85 -20z
m240 11 c0 -17 -26 -29 -78 -33 -62 -6 -93 -28 -76 -56 9 -13 28 -18 83 -20
39 -2 71 -6 71 -10 0 -4 -7 -15 -14 -24 -10 -14 -28 -18 -74 -18 -50 0 -66 4
-91 26 -40 33 -43 83 -6 119 22 22 32 25 105 25 44 0 80 -4 80 -9z m215 -11
c-10 -11 -31 -20 -47 -20 -28 0 -28 0 -28 -66 l0 -65 -27 3 c-27 3 -28 6 -31
61 l-3 57 -34 0 c-39 0 -42 5 -18 32 13 15 32 18 111 18 94 0 95 0 77 -20z
m2605 -155 c82 -21 208 -89 270 -144 l55 -49 70 66 70 67 -67 -70 -68 -70 28
-35 c40 -50 79 -120 109 -198 24 -60 26 -81 27 -202 0 -74 -2 -151 -5 -170 -6
-37 -73 -190 -83 -190 -10 0 1 64 24 136 30 91 36 258 15 352 -34 148 -143
302 -273 388 -241 161 -571 129 -783 -76 l-70 -68 7 -143 c3 -79 8 -145 9
-147 1 -1 10 0 19 4 14 5 16 26 17 148 1 77 1 146 -1 151 -1 7 2 7 8 0 6 -5
11 -75 13 -155 4 -143 4 -145 -18 -148 -12 -2 -36 -19 -53 -39 l-31 -35 3 161
c2 89 2 161 1 161 -8 0 -63 -124 -79 -175 -14 -46 -18 -90 -18 -185 1 -113 4
-133 32 -213 31 -88 34 -140 5 -102 -7 10 -15 17 -17 14 -3 -2 -94 -92 -203
-199 -109 -108 -207 -202 -218 -210 -11 -7 79 86 199 207 l219 221 -17 47
c-31 80 -45 157 -46 246 -1 329 236 609 568 669 62 12 213 4 282 -15z m-3696
-60 c-7 -19 -14 -51 -14 -72 0 -28 -3 -34 -10 -23 -11 17 -14 113 -3 123 3 4
14 7 24 7 17 0 17 -3 3 -35z m106 -108 c46 -24 154 -17 254 18 40 14 88 25
107 24 32 -1 30 -3 -36 -34 -133 -63 -309 -82 -358 -38 -26 24 -38 59 -31 90
7 26 7 26 18 -8 7 -23 22 -40 46 -52z m3353 -203 c-3 -16 -30 -16 -36 0 -5 12
-1 15 16 12 12 -1 21 -7 20 -12z m-55 -39 c-11 -25 -28 -34 -28 -14 0 6 5 19
11 30 15 28 31 13 17 -16z m-3570 -10 c-13 -29 -48 -34 -48 -7 0 25 9 32 36
32 21 0 23 -2 12 -25z m2600 0 c-11 -24 -48 -36 -48 -16 0 25 14 41 36 41 22
0 23 -2 12 -25z m695 -106 c-4 -4 -6 24 -3 64 l5 72 3 -64 c2 -35 -1 -68 -5
-72z m895 91 c5 -13 3 -13 -12 0 -16 13 -20 12 -32 -5 -8 -10 -14 -14 -14 -9
0 31 49 43 58 14z m-628 -45 c0 -7 -8 -19 -17 -26 -15 -12 -16 -12 -10 3 3 9
1 18 -4 20 -6 2 -7 11 -3 21 5 14 9 15 20 6 8 -6 14 -17 14 -24z m367 27 c17
-11 34 -60 23 -67 -5 -3 -10 4 -12 16 -8 55 -68 44 -68 -12 0 -16 -4 -29 -10
-29 -18 0 -10 53 12 77 23 24 35 28 55 15z m-4969 -40 c3 -29 1 -33 -15 -28
-31 10 -45 -8 -41 -55 3 -41 5 -44 31 -44 24 1 27 -3 27 -31 0 -40 -27 -52
-71 -33 -38 15 -59 56 -59 111 1 72 43 121 100 115 20 -2 26 -8 28 -35z m84 7
l11 -31 13 31 c9 22 20 31 37 31 13 0 26 -3 29 -6 3 -3 -5 -32 -18 -64 -14
-36 -24 -80 -24 -110 l0 -50 -35 0 -35 0 0 50 c0 31 -9 70 -25 106 -14 31 -25
60 -25 65 0 5 14 9 31 9 25 0 32 -5 41 -31z m238 6 c24 -22 27 -73 5 -81 -14
-6 -14 -8 1 -18 22 -16 21 -62 -1 -86 -14 -16 -31 -20 -77 -20 l-58 0 0 116 0
116 55 -4 c34 -3 62 -12 75 -23z m158 -7 c3 -24 0 -28 -22 -28 -32 0 -35 -27
-3 -32 16 -2 22 -10 22 -28 0 -18 -6 -26 -22 -28 -13 -2 -23 -7 -23 -12 0 -5
10 -10 23 -12 16 -2 23 -11 25 -30 3 -28 3 -28 -57 -28 l-61 0 0 108 c0 60 3
112 7 116 4 4 30 6 58 4 46 -3 50 -5 53 -30z m160 -3 c26 -31 28 -52 6 -83
-14 -21 -14 -26 0 -63 21 -51 21 -49 -18 -49 -29 0 -35 4 -44 33 l-10 32 -1
-32 c-1 -31 -3 -33 -36 -33 l-35 0 0 108 c0 60 3 112 8 116 4 5 30 5 57 2 37
-4 56 -12 73 -31z m231 24 c49 -17 69 -79 36 -113 -13 -13 -13 -20 5 -60 l19
-46 -33 0 c-30 0 -36 5 -49 38 l-16 37 0 -37 c-1 -35 -3 -38 -31 -38 l-30 0 0
115 0 115 34 0 c18 0 47 -5 65 -11z m199 -21 c3 -25 0 -28 -27 -28 -21 0 -31
-5 -31 -15 0 -9 10 -15 26 -15 22 0 25 -4 22 -27 -2 -20 -9 -29 -25 -31 -32
-5 -29 -20 5 -24 21 -2 28 -9 30 -30 3 -28 3 -28 -57 -28 l-61 0 0 115 0 116
58 -3 c54 -3 57 -4 60 -30z m106 26 c10 -4 16 -18 16 -40 0 -31 -2 -33 -20
-22 -33 21 -35 -1 -2 -35 33 -34 40 -64 21 -98 -13 -25 -53 -41 -85 -33 -20 5
-24 12 -24 40 0 31 2 34 19 24 26 -13 31 -13 31 3 0 8 -11 24 -25 37 -58 55
-4 152 69 124z m106 -109 l0 -115 -30 0 -30 0 0 115 0 115 30 0 30 0 0 -115z
m90 31 c0 -81 1 -84 25 -90 18 -5 25 -13 25 -31 0 -24 -3 -25 -55 -25 l-55 0
0 115 0 115 30 0 30 0 0 -84z m128 -33 l3 -113 -36 0 -35 0 0 108 c0 60 3 112
7 116 4 4 19 6 33 4 25 -3 25 -3 28 -115z m140 85 c3 -24 0 -28 -22 -28 -16 0
-26 -6 -26 -15 0 -8 9 -15 20 -15 11 0 20 -3 21 -7 0 -5 2 -16 4 -25 3 -16
-11 -23 -37 -19 -5 0 -8 -8 -8 -19 0 -15 7 -20 25 -20 20 0 25 -5 25 -25 0
-24 -3 -25 -60 -25 l-60 0 0 108 c0 60 3 112 7 116 4 4 30 6 58 4 46 -3 50 -5
53 -30z m82 16 c5 -5 16 -27 24 -49 l15 -40 0 51 c1 53 2 54 54 45 4 0 7 -51
7 -112 l0 -110 -32 3 c-28 3 -35 9 -50 48 l-17 45 0 -47 c-1 -46 -2 -48 -31
-48 l-30 0 0 108 c0 60 2 111 5 114 8 8 44 3 55 -8z m253 8 c3 -4 3 -19 0 -34
-3 -18 -10 -25 -19 -21 -22 8 -44 -17 -44 -51 0 -45 13 -60 45 -54 26 5 27 4
21 -25 -8 -39 -9 -40 -47 -39 -89 2 -119 151 -42 211 25 21 77 28 86 13z m130
-1 c4 -1 7 -12 7 -26 0 -20 -5 -25 -25 -25 -16 0 -25 -6 -25 -15 0 -9 9 -15
25 -15 20 0 25 -5 25 -25 0 -20 -5 -25 -25 -25 -18 0 -25 -5 -25 -20 0 -15 7
-20 25 -20 20 0 25 -5 25 -25 0 -24 -3 -25 -55 -25 l-55 0 0 108 c0 60 2 111
5 113 3 4 54 4 98 0z m247 -9 c27 -22 30 -65 6 -91 -19 -20 -8 -35 17 -25 21
8 41 -28 25 -44 -9 -9 -7 -17 8 -33 l19 -21 -45 4 c-25 3 -55 1 -68 -4 -63
-22 -121 63 -73 106 16 14 17 22 8 46 -10 26 -8 33 13 55 28 30 59 32 90 7z
m484 12 c10 -4 16 -18 16 -40 0 -31 -2 -33 -20 -22 -33 21 -35 -1 -2 -35 45
-47 42 -96 -7 -121 -14 -8 -39 -12 -54 -9 -23 5 -27 10 -27 40 0 30 2 33 19
23 26 -13 31 -13 31 3 0 8 -11 24 -25 37 -58 55 -4 152 69 124z m166 -29 c0
-27 -3 -33 -15 -29 -23 9 -45 -15 -45 -50 0 -45 13 -60 45 -54 26 5 27 4 21
-25 -8 -39 -9 -40 -47 -39 -40 1 -66 25 -81 74 -22 75 27 158 93 158 26 0 29
-3 29 -35z m1633 -6 c-21 -42 -51 -75 -60 -66 -3 4 3 16 14 27 12 11 29 33 39
49 24 40 29 33 7 -10z m-2003 6 c0 -18 -5 -25 -20 -25 -11 0 -20 -7 -20 -15 0
-8 9 -15 20 -15 15 0 20 -7 20 -25 0 -18 -5 -25 -20 -25 -17 0 -20 -7 -20 -45
0 -45 0 -45 -35 -45 l-35 0 0 110 0 110 55 0 c52 0 55 -1 55 -25z m80 -85 l0
-110 -30 0 -30 0 0 110 0 110 30 0 30 0 0 -110z m458 7 c12 -57 22 -107 22
-110 0 -14 -61 -6 -66 8 -4 8 -13 15 -20 15 -8 0 -17 -7 -20 -15 -7 -18 -64
-20 -64 -2 0 12 37 172 45 195 2 7 21 12 43 12 l39 0 21 -103z m102 18 c0 -78
2 -85 20 -85 15 0 20 -7 20 -25 0 -24 -3 -25 -55 -25 l-55 0 0 110 0 110 35 0
35 0 0 -85z m120 -25 l0 -110 -30 0 -30 0 0 110 0 110 30 0 30 0 0 -110z m140
85 c0 -16 -6 -25 -15 -25 -12 0 -15 -16 -15 -85 l0 -85 -30 0 -30 0 0 85 c0
78 -2 85 -20 85 -15 0 -20 7 -20 25 0 24 2 25 65 25 63 0 65 -1 65 -25z m130
0 c0 -20 -5 -25 -25 -25 -16 0 -25 -6 -25 -15 0 -9 9 -15 25 -15 20 0 25 -5
25 -25 0 -20 -5 -25 -25 -25 -18 0 -25 -5 -25 -20 0 -15 7 -20 25 -20 20 0 25
-5 25 -25 0 -24 -3 -25 -55 -25 l-55 0 0 110 0 110 55 0 c52 0 55 -1 55 -25z
m1570 6 c0 -24 -25 -45 -45 -37 -8 3 -15 17 -15 31 0 21 5 25 30 25 23 0 30
-5 30 -19z m-450 -45 c0 -8 -5 -18 -11 -22 -14 -8 -33 11 -25 25 10 16 36 13
36 -3z m-270 -58 c0 -23 -4 -29 -16 -24 -9 3 -22 6 -29 6 -7 0 -16 8 -20 18
-5 14 -4 15 6 5 19 -19 27 -16 24 11 -2 19 1 23 16 19 13 -4 19 -14 19 -35z
m500 -4 c0 -61 -25 -94 -72 -94 -34 0 -58 33 -58 81 0 43 7 47 78 48 l52 1 0
-36z m610 -17 c0 -1 -26 -27 -57 -57 -32 -30 -44 -39 -28 -20 38 44 85 87 85
77z m-1055 -47 c-3 -11 1 -20 10 -24 9 -3 13 -2 10 4 -3 6 -1 10 6 10 8 0 8 4
-1 15 -19 23 -3 31 20 10 15 -14 20 -15 20 -4 1 16 30 -18 30 -35 0 -5 -7 -1
-15 10 -8 10 -15 14 -15 7 0 -7 -7 -10 -15 -7 -16 6 -19 -4 -9 -30 5 -13 9
-14 20 -5 17 14 19 -2 3 -18 -8 -8 -8 -16 0 -30 11 -16 11 -15 5 5 -5 21 -3
23 16 17 19 -6 21 -4 15 17 -7 22 -6 22 11 6 13 -13 15 -20 6 -30 -7 -9 -8
-19 -2 -28 13 -21 13 -23 -10 -48 -24 -25 -63 -30 -54 -7 4 8 11 12 18 8 6 -4
5 1 -3 10 -11 14 -16 15 -29 5 -13 -11 -15 -9 -10 13 3 18 -1 30 -14 38 -19
12 -24 31 -8 31 6 0 10 -7 10 -16 0 -8 5 -12 11 -8 7 4 2 16 -14 33 -30 32
-45 84 -22 75 9 -4 13 -13 10 -24z m-141 5 c-4 -8 -1 -15 5 -15 6 0 11 -7 11
-15 0 -8 -4 -15 -10 -15 -5 0 -10 7 -10 15 0 8 -5 15 -11 15 -8 0 -8 5 1 15 7
8 14 15 16 15 2 0 1 -7 -2 -15z m74 -10 c-3 -3 -9 2 -12 12 -6 14 -5 15 5 6 7
-7 10 -15 7 -18z m711 -18 c0 -8 -2 -8 -6 1 -4 10 -8 10 -21 0 -15 -12 -16
-11 -3 4 14 19 32 15 30 -5z m-809 -19 c0 -6 -6 -5 -15 2 -8 7 -15 14 -15 16
0 2 7 1 15 -2 8 -4 15 -11 15 -16z m380 9 c0 -21 -12 -28 -27 -16 -19 16 -16
29 7 29 11 0 20 -6 20 -13z m440 -20 c0 -19 -20 -36 -36 -30 -8 3 -14 14 -14
24 0 14 7 19 25 19 14 0 25 -6 25 -13z m-744 -27 c3 0 2 5 -1 10 -8 13 1 13
25 0 11 -6 17 -17 14 -25 -4 -8 -10 -12 -15 -9 -5 3 -9 1 -9 -4 0 -6 7 -13 16
-16 8 -3 12 -10 9 -16 -3 -5 -2 -10 3 -10 6 0 12 -6 15 -14 4 -10 0 -12 -15
-8 -11 2 -22 12 -25 21 -3 9 -13 24 -21 34 -13 14 -13 17 -1 18 8 0 4 4 -8 9
-13 5 -23 17 -23 25 0 15 1 15 16 1 8 -9 18 -16 20 -16z m74 -14 c0 -6 -7 -1
-15 10 -8 10 -15 23 -15 28 0 6 7 1 15 -10 8 -10 15 -23 15 -28z m13 -66 c7
-29 1 -24 -17 11 -12 23 -12 28 -2 20 8 -7 16 -21 19 -31z m-3695 -22 c3 -24
0 -28 -22 -28 -16 0 -26 -6 -26 -15 0 -8 8 -15 19 -15 10 0 21 -9 24 -19 6
-24 0 -31 -25 -31 -11 0 -18 -7 -18 -20 0 -15 7 -20 25 -20 20 0 25 -5 25 -25
0 -24 -3 -25 -60 -25 l-60 0 0 108 c0 60 3 112 7 116 4 4 30 6 58 4 46 -3 50
-5 53 -30z m84 15 c4 -2 13 -23 20 -46 l13 -42 5 50 c5 45 7 50 30 50 l25 0 3
-113 3 -113 -33 3 c-28 3 -35 9 -50 48 l-17 45 0 -47 c-1 -46 -2 -48 -31 -48
l-30 0 0 115 0 115 28 -6 c15 -4 30 -9 34 -11z m358 -18 c-5 -13 -20 -46 -35
-74 -32 -64 -32 -71 5 -71 25 0 30 -4 30 -25 0 -25 -1 -25 -79 -25 l-80 0 25
57 c14 31 32 69 40 85 14 28 14 28 -16 28 -25 0 -30 4 -30 25 0 23 3 24 68 27
37 2 70 2 74 0 4 -1 3 -14 -2 -27z m158 15 c46 -43 48 -149 3 -193 -25 -25
-74 -26 -101 -2 -26 24 -43 86 -34 130 7 40 54 85 88 85 12 0 32 -9 44 -20z
m592 -15 c0 -27 -3 -33 -15 -29 -23 9 -45 -15 -45 -50 0 -45 13 -60 45 -54 26
5 27 4 21 -25 -8 -39 -9 -40 -47 -39 -40 1 -66 25 -81 74 -22 75 27 158 93
158 26 0 29 -3 29 -35z m720 0 c0 -27 -3 -33 -15 -29 -23 9 -45 -15 -45 -50 0
-45 13 -60 45 -54 26 5 27 4 21 -25 -8 -39 -9 -40 -47 -39 -40 1 -66 25 -81
74 -22 75 27 158 93 158 26 0 29 -3 29 -35z m-1177 -12 l15 -38 1 38 c1 34 3
37 31 37 l30 0 0 -110 0 -110 -28 0 c-24 0 -31 7 -49 48 l-21 47 -1 -47 c-1
-46 -2 -48 -31 -48 l-30 0 0 110 0 110 34 0 c29 0 35 -5 49 -37z m227 12 c0
-20 -5 -25 -25 -25 -16 0 -25 -6 -25 -15 0 -8 9 -15 20 -15 15 0 20 -7 20 -25
0 -18 -5 -25 -20 -25 -13 0 -20 -7 -20 -20 0 -15 7 -20 25 -20 20 0 25 -5 25
-25 0 -24 -3 -25 -60 -25 l-60 0 0 110 0 110 60 0 c57 0 60 -1 60 -25z m370 0
c0 -20 -5 -25 -25 -25 -16 0 -25 -6 -25 -15 0 -9 9 -15 25 -15 20 0 25 -5 25
-25 0 -20 -5 -25 -25 -25 -18 0 -25 -5 -25 -20 0 -15 7 -20 25 -20 20 0 25 -5
25 -25 0 -24 -3 -25 -55 -25 l-55 0 0 110 0 110 55 0 c52 0 55 -1 55 -25z
m131 -15 c6 -35 14 -28 21 15 2 16 12 21 44 23 l41 3 9 -111 9 -110 -32 0
c-33 0 -33 0 -34 53 l-1 52 -12 -50 c-10 -43 -16 -50 -38 -53 -24 -3 -28 1
-33 35 -10 59 -13 62 -14 11 l-1 -48 -36 0 -37 0 6 43 c3 23 9 73 13 110 l7
68 41 -3 c38 -3 41 -5 47 -38z m287 -63 c12 -57 22 -107 22 -110 0 -14 -61 -6
-66 8 -4 8 -13 15 -20 15 -8 0 -17 -7 -20 -15 -7 -18 -64 -20 -64 -2 0 12 37
172 45 195 2 7 21 12 43 12 l39 0 21 -103z m2082 93 c0 -5 -2 -10 -4 -10 -3 0
-8 5 -11 10 -3 6 -1 10 4 10 6 0 11 -4 11 -10z m-175 -21 c11 -17 -1 -21 -15
-4 -8 9 -8 15 -2 15 6 0 14 -5 17 -11z m175 -53 c0 -28 -1 -29 -19 -12 -11 10
-24 16 -28 13 -5 -3 -9 3 -9 13 0 11 5 16 15 12 9 -3 12 -1 7 6 -4 7 -4 17 -1
23 11 16 34 -22 35 -55z m-130 42 c0 19 40 15 40 -5 0 -10 3 -28 6 -40 4 -13
2 -23 -4 -23 -6 0 -13 14 -17 30 -9 39 -24 30 -19 -11 4 -36 -4 -35 -11 0 -2
13 -7 32 -10 44 -5 17 -4 19 4 7 7 -10 11 -11 11 -2z m510 -88 c0 -5 -2 -10
-4 -10 -3 0 -8 5 -11 10 -3 6 -1 10 4 10 6 0 11 -4 11 -10z m-32 -25 c-3 -3
-9 2 -12 12 -6 14 -5 15 5 6 7 -7 10 -15 7 -18z m-66 1 c9 0 15 -2 13 -5 -3
-2 0 -10 7 -18 20 -25 3 -21 -37 10 -22 16 -31 26 -20 22 11 -4 28 -8 37 -9z
m119 -13 c13 -16 12 -17 -3 -4 -10 7 -18 15 -18 17 0 8 8 3 21 -13z m-1751
-228 c55 -28 75 -98 45 -155 -33 -64 80 -60 -1635 -60 -1715 0 -1602 -4 -1635
60 -8 16 -15 42 -15 57 0 36 34 91 63 103 13 5 681 9 1585 9 1378 1 1566 -1
1592 -14z"/>
<path d="M600 1315 c0 -8 5 -15 10 -15 6 0 10 7 10 15 0 8 -4 15 -10 15 -5 0
-10 -7 -10 -15z"/>
<path d="M600 1230 c0 -13 5 -20 13 -17 6 2 12 10 12 17 0 7 -6 15 -12 18 -8
2 -13 -5 -13 -18z"/>
<path d="M920 1304 c0 -14 4 -23 10 -19 6 3 10 15 10 26 0 10 -4 19 -10 19 -5
0 -10 -12 -10 -26z"/>
<path d="M1180 1305 c0 -14 4 -25 9 -25 12 0 19 21 13 38 -8 21 -22 13 -22
-13z"/>
<path d="M2650 1330 c0 -5 5 -10 10 -10 6 0 10 5 10 10 0 6 -4 10 -10 10 -5 0
-10 -4 -10 -10z"/>
<path d="M2630 1232 c0 -12 19 -26 26 -19 2 2 -2 10 -11 17 -9 8 -15 8 -15 2z"/>
<path d="M3452 1270 c0 -19 2 -27 5 -17 2 9 2 25 0 35 -3 9 -5 1 -5 -18z"/>
<path d="M5540 1355 c0 -8 2 -15 4 -15 2 0 6 7 10 15 3 8 1 15 -4 15 -6 0 -10
-7 -10 -15z"/>
<path d="M5279 1268 c-1 -1 -2 -20 -3 -40 -2 -29 1 -38 13 -38 20 0 23 71 3
78 -6 2 -12 2 -13 0z"/>
<path d="M1754 956 c-9 -38 -1 -81 16 -81 9 0 16 11 18 29 4 36 -5 76 -18 76
-5 0 -12 -11 -16 -24z"/>
<path d="M2902 920 c0 -19 2 -27 5 -17 2 9 2 25 0 35 -3 9 -5 1 -5 -18z"/>
</g>
</svg>
